<?xml version="1.0" encoding="utf-8"?>
<!-- Generator: Adobe Illustrator 20.0.0, SVG Export Plug-In . SVG Version: 6.00 Build 0)  -->
<svg version="1.1" id="Map" xmlns="http://www.w3.org/2000/svg" xmlns:xlink="http://www.w3.org/1999/xlink" x="0px" y="0px"
	 viewBox="0 0 792 520" style="enable-background:new 0 0 792 520;" xml:space="preserve">
<style type="text/css">
	.st0{fill:none;enable-background:new    ;}
</style>
<image style="overflow:visible;" width="792" height="612" xlink:href="76FBB5E6.png"  transform="matrix(1.0896 0 0 1.0896 -18 -30.2273)">
</image>
<path class="st0" d="z"/>
<polygon id="Lyon" points="87.7,7.9 87.7,9 105.1,9 106.2,13.4 105.1,17.7 105.1,23.2 105.1,35.2 104,46 84.4,46 75.7,46 53.9,45 
	46.3,43.9 32.1,43.9 29.9,41.7 24.5,41.7 22.3,40.6 21.2,40.6 21.2,39.5 26.7,35.2 25.6,38.4 27.8,38.4 26.7,29.7 28.9,25.3 
	28.9,19.9 25.6,19.9 25.6,18.8 24.5,18.8 24.5,17.7 23.4,17.7 23.4,14.4 21.2,14.4 21.2,13.4 20.1,13.4 20.1,12.3 22.3,12.3 
	22.3,5.7 32.1,5.7 32.1,6.8 59.4,6.8 59.4,7.9 "/>
<polygon id="Osceola" points="155.3,10.1 155.3,11.2 159.6,11.2 159.6,39.5 158.5,39.5 158.5,47.1 140,47.1 140,46 108.4,46 
	108.4,45 106.2,45 106.2,16.6 107.3,16.6 107.3,9 118.2,9 118.2,10.1 "/>
<polygon id="Dickinson" points="201,11.2 201,12.3 215.2,12.3 215.2,49.3 207.6,49.3 207.6,48.2 166.2,48.2 166.2,47.1 161.8,47.1 
	161.8,24.3 162.9,24.3 162.9,11.2 "/>
<polygon id="Emmet" points="247.9,12.3 247.9,13.4 270.8,13.4 270.8,50.4 257.7,50.4 257.7,49.3 217.4,49.3 217.4,35.2 218.5,35.2 
	218.5,12.3 "/>
<polygon id="Kossuth" points="307.8,13.4 307.8,14.4 326.3,14.4 326.3,89.6 325.2,89.6 325.2,107.1 324.1,107.1 324.1,106 
	271.8,106 271.8,99.4 272.9,99.4 272.9,37.3 274,37.3 274,13.4 "/>
<polygon id="Winnebago" points="381.9,14.4 381.9,51.5 331.8,51.5 331.8,50.4 329.6,50.4 329.6,14.4 "/>
<polygon id="Worth" points="437.5,14.4 437.5,51.5 384.1,51.5 384.1,16.6 385.2,16.6 385.2,14.4 "/>
<polygon id="Mitchell" points="493,14.4 493,58 440.7,58 440.7,14.4 "/>
<polygon id="Howard" points="548.6,14.4 548.6,58 496.3,58 496.3,31.9 495.2,31.9 495.2,25.3 496.3,25.3 496.3,18.8 495.2,18.8 
	495.2,17.7 496.3,17.7 496.3,14.4 "/>
<polygon id="Winneshiek" points="603.1,13.4 603.1,26.4 604.2,26.4 604.2,45 605.3,45 605.3,78.7 551.9,78.7 551.9,14.4 568.2,14.4 
	568.2,13.4 "/>
<polygon id="Allamakee" points="634.7,13.4 634.7,12.3 650,12.3 650,14.4 648.9,14.4 648.9,15.5 647.8,15.5 647.8,21 648.9,21 
	648.9,22.1 650,22.1 650,23.2 651,23.2 651,25.3 652.1,25.3 652.1,29.7 651,29.7 651,36.2 652.1,36.2 652.1,37.3 655.4,37.3 
	655.4,38.4 657.6,38.4 657.6,39.5 660.8,39.5 660.8,40.6 661.9,40.6 661.9,41.7 664.1,41.7 664.1,43.9 665.2,43.9 665.2,45 
	666.3,45 666.3,47.1 667.4,47.1 667.4,50.4 669.6,50.4 668.5,50.4 668.5,52.6 667.4,52.6 667.4,53.7 666.3,53.7 666.3,54.8 
	665.2,54.8 665.2,55.9 664.1,55.9 664.1,56.9 663,56.9 663,58 661.9,58 661.9,61.3 660.8,61.3 660.8,62.4 659.8,62.4 659.8,66.8 
	658.7,66.8 658.7,67.8 656.5,67.8 656.5,68.9 655.4,68.9 655.4,77.6 610.7,77.6 610.7,78.7 607.5,78.7 607.5,36.2 606.4,36.2 
	606.4,13.4 "/>
<polygon id="Sioux" points="91,47.1 91,48.2 103,48.2 103,78.7 103,82 103,102.7 88.8,101.6 88.8,100.5 56.1,100.5 56.1,99.4 
	28.9,99.4 28.9,98.4 24.5,98.4 24.5,97.3 26.7,97.3 26.7,96.2 27.8,96.2 27.8,94 28.9,94 28.9,90.7 27.8,90.7 27.8,87.5 28.9,87.5 
	28.9,86.4 29.9,86.4 29.9,82 28.9,82 28.9,80.9 27.8,80.9 27.8,78.7 31,78.7 31,77.6 33.2,77.6 33.2,76.6 34.3,76.6 34.3,74.4 
	35.4,74.4 35.4,70 36.5,70 36.5,68.9 37.6,68.9 37.6,64.6 36.5,64.6 36.5,62.4 35.4,62.4 35.4,61.3 34.3,61.3 34.3,54.8 33.2,54.8 
	33.2,53.7 34.3,53.7 34.3,51.5 33.2,51.5 33.2,48.2 26.7,48.2 26.7,47.1 22.3,47.1 24.5,47.1 24.5,45 37.6,45 37.6,46 60.5,46 
	60.5,47.1 "/>
<polygon id="O_x27_Brien" points="146.5,49.3 146.5,50.4 158.5,50.4 158.5,76.6 157.4,76.6 157.4,103.8 155.3,103.8 155.3,102.7 
	119.3,102.7 119.3,101.6 104,101.6 104,100.5 105.1,100.5 105.1,66.8 105.1,60.2 106.2,48.2 125.8,48.2 125.8,49.3 "/>
<polygon id="Clay" points="184.7,50.4 184.7,51.5 215.2,51.5 215.2,58 214.1,58 214.1,104.9 195.6,104.9 195.6,103.8 159.6,103.8 
	159.6,97.3 160.7,97.3 160.7,60.2 161.8,60.2 161.8,50.4 "/>
<polygon id="Palo_Alto" points="270.8,52.6 270.8,66.8 269.7,66.8 269.7,106 238.1,106 238.1,104.9 216.3,104.9 216.3,85.3 
	217.4,85.3 217.4,51.5 229.3,51.5 229.3,52.6 "/>
<polygon id="Hancock" points="381.9,53.7 381.9,95.1 380.8,95.1 380.8,107.1 328.5,107.1 328.5,53.7 "/>
<polygon id="Cerro_Gordo" points="437.5,53.7 437.5,107.1 384.1,107.1 384.1,53.7 "/>
<polygon id="Floyd" points="493,61.3 493,107.1 440.7,107.1 440.7,61.3 "/>
<polygon id="Chickasaw" points="548.6,60.2 548.6,107.1 496.3,107.1 496.3,60.2 "/>
<polygon id="Fayette" points="605.3,80.9 605.3,131 606.4,131 606.4,148.5 578,148.5 578,149.6 551.9,149.6 551.9,80.9 "/>
<polygon id="Clayton" points="655.4,79.8 655.4,84.2 656.5,84.2 656.5,89.6 657.6,89.6 657.6,92.9 658.7,92.9 658.7,97.3 
	659.8,97.3 659.8,108.2 661.9,108.2 661.9,109.2 664.1,109.2 664.1,110.3 665.2,110.3 665.2,113.6 666.3,113.6 666.3,120.1 
	668.5,120.1 668.5,126.7 669.6,126.7 669.6,130 670.7,130 670.7,133.2 671.7,133.2 671.7,135.4 675,135.4 675,137.6 678.3,137.6 
	678.3,138.7 679.4,138.7 679.4,139.8 680.5,139.8 680.5,141.9 683.7,141.9 683.7,143 689.2,143 689.2,144.1 690.3,144.1 
	690.3,146.3 691.4,146.3 671.7,146.3 671.7,147.4 633.6,147.4 633.6,148.5 608.5,148.5 608.5,83.1 607.5,83.1 607.5,80.9 
	612.9,80.9 612.9,79.8 "/>
<polygon id="Plymouth" points="70.3,102.7 70.3,103.8 98.6,103.8 98.6,104.9 101.9,104.9 101.9,116.9 100.8,116.9 100.8,145.2 
	99.7,145.2 99.7,158.3 94.2,158.3 94.2,157.2 65.9,157.2 65.9,156.1 40.8,156.1 40.8,155 27.8,155 27.8,150.7 26.7,150.7 
	26.7,148.5 25.6,148.5 25.6,146.3 24.5,146.3 24.5,143 23.4,143 23.4,141.9 22.3,141.9 22.3,138.7 20.1,138.7 20.1,137.6 19,137.6 
	19,136.5 18,136.5 18,134.3 16.9,134.3 16.9,133.2 15.8,133.2 15.8,132.1 12.5,132.1 12.5,125.6 13.6,125.6 13.6,123.4 12.5,123.4 
	12.5,122.3 13.6,122.3 13.6,121.2 14.7,121.2 14.7,120.1 15.8,120.1 15.8,119.1 16.9,119.1 16.9,115.8 18,115.8 18,114.7 
	20.1,114.7 20.1,113.6 22.3,113.6 22.3,110.3 23.4,110.3 23.4,107.1 22.3,107.1 23.4,107.1 23.4,104.9 24.5,104.9 24.5,103.8 
	25.6,103.8 25.6,101.6 40.8,101.6 40.8,102.7 "/>
<polygon id="Cherokee" points="157.4,106 157.4,135.4 156.3,135.4 156.3,159.4 148.7,159.4 148.7,158.3 103,158.3 103,131 104,131 
	104,104.9 135.6,104.9 135.6,106 "/>
<polygon id="Buena_Vista" points="213,107.1 213,144.1 211.9,144.1 211.9,160.5 183.6,160.5 183.6,159.4 158.5,159.4 158.5,138.7 
	159.6,138.7 159.6,106 192.3,106 192.3,107.1 "/>
<polygon id="Pocahontas" points="234.8,108.2 269.7,108.2 269.7,127.8 268.6,127.8 268.6,162.6 266.4,162.6 266.4,161.6 
	221.7,161.6 221.7,160.5 215.2,160.5 215.2,131 216.3,131 216.3,107.1 "/>
<polygon id="Humboldt" points="325.2,109.2 325.2,149.6 319.8,149.6 319.8,148.5 271.8,148.5 271.8,108.2 284.9,108.2 284.9,109.2 
	"/>
<polygon id="Wright" points="380.8,109.2 380.8,163.7 331.8,163.7 331.8,162.6 327.4,162.6 327.4,135.4 328.5,135.4 328.5,109.2 "/>
<polygon id="Franklin" points="437.5,110.3 437.5,163.7 383,163.7 383,157.2 384.1,157.2 384.1,109.2 393.9,109.2 393.9,110.3 "/>
<polygon id="Butler" points="493,110.3 493,145.2 494.1,145.2 494.1,163.7 439.7,163.7 439.7,110.3 "/>
<polygon id="Bremer" points="519.2,110.3 519.2,109.2 549.7,109.2 549.7,114.7 548.6,114.7 548.6,116.9 549.7,116.9 549.7,118 
	548.6,118 548.6,121.2 549.7,121.2 549.7,149.6 496.3,149.6 496.3,110.3 "/>
<polygon id="Woodbury" points="63.7,158.3 63.7,159.4 91,159.4 91,160.5 113.8,160.5 113.8,174.6 121.5,174.6 121.5,198.6 
	120.4,198.6 120.4,214.9 113.8,214.9 113.8,213.9 83.3,213.9 83.3,212.8 63.7,212.8 63.7,211.7 44.1,211.7 45.2,211.7 45.2,208.4 
	44.1,208.4 45.2,208.4 45.2,206.2 44.1,206.2 44.1,203 41.9,203 41.9,201.9 40.8,201.9 40.8,196.4 39.8,196.4 39.8,194.2 
	38.7,194.2 38.7,193.2 36.5,193.2 36.5,192.1 35.4,192.1 35.4,189.9 34.3,189.9 35.4,189.9 35.4,187.7 36.5,187.7 36.5,184.4 
	35.4,184.4 35.4,182.3 36.5,182.3 36.5,180.1 37.6,180.1 37.6,179 38.7,179 38.7,177.9 39.8,177.9 39.8,169.2 38.7,169.2 
	38.7,168.1 36.5,168.1 36.5,167 31,167 31,165.9 28.9,165.9 28.9,163.7 27.8,163.7 27.8,162.6 28.9,162.6 28.9,158.3 "/>
<polygon id="Ida" points="156.3,161.6 156.3,175.7 162.9,175.7 162.9,208.4 161.8,208.4 161.8,216 145.4,216 145.4,214.9 
	123.7,214.9 123.7,187.7 124.7,187.7 124.7,172.4 117.1,172.4 117.1,171.4 116,171.4 116,162.6 117.1,162.6 117.1,160.5 128,160.5 
	128,161.6 "/>
<polygon id="Sac" points="202.1,162.6 202.1,163.7 211.9,163.7 211.9,177.9 219.5,177.9 218.5,177.9 218.5,217.1 184.7,217.1 
	184.7,216 165.1,216 165.1,191 166.2,191 166.2,173.5 158.5,173.5 158.5,161.6 161.8,161.6 161.8,162.6 "/>
<polygon id="Calhoun" points="239.2,163.7 239.2,164.8 268.6,164.8 268.6,179 274,179 274,204 272.9,204 272.9,218.2 222.8,218.2 
	222.8,217.1 220.6,217.1 220.6,198.6 221.7,198.6 221.7,174.6 215.2,174.6 215.2,163.7 "/>
<polygon id="Webster" points="325.2,151.7 325.2,180.1 329.6,180.1 329.6,181.2 328.5,181.2 328.5,219.3 276.2,219.3 276.2,175.7 
	270.8,175.7 270.8,161.6 271.8,161.6 271.8,158.3 270.8,158.3 271.8,158.3 271.8,150.7 283.8,150.7 283.8,151.7 "/>
<polygon id="Hamilton" points="380.8,165.9 380.8,180.1 385.2,180.1 385.2,220.4 365.6,220.4 365.6,219.3 331.8,219.3 331.8,176.8 
	327.4,176.8 327.4,165.9 "/>
<polygon id="Hardin" points="437.5,167 437.5,181.2 440.7,181.2 440.7,220.4 387.3,220.4 387.3,187.7 388.4,187.7 388.4,177.9 
	383,177.9 383,165.9 388.4,165.9 388.4,167 "/>
<polygon id="Grundy" points="494.1,167 494.1,181.2 496.3,181.2 496.3,206.2 468,206.2 468,220.4 442.9,220.4 442.9,177.9 
	439.7,177.9 439.7,167 "/>
<polygon id="Black_Hawk" points="549.7,152.8 549.7,180.1 551.9,180.1 551.9,205.1 511.6,205.1 511.6,206.2 499.6,206.2 499.6,179 
	498.5,179 498.5,177.9 496.3,177.9 496.3,152.8 "/>
<polygon id="Buchanan" points="606.4,151.7 606.4,179 607.5,179 607.5,192.1 608.5,192.1 608.5,205.1 555.2,205.1 555.2,177.9 
	553,177.9 553,170.3 551.9,170.3 551.9,152.8 556.2,152.8 556.2,151.7 "/>
<polygon id="Delaware" points="654.3,150.7 654.3,149.6 663,149.6 663,177.9 664.1,177.9 664.1,204 614,204 614,205.1 610.7,205.1 
	610.7,176.8 609.6,176.8 609.6,171.4 608.5,171.4 608.5,151.7 610.7,151.7 610.7,150.7 "/>
<polygon id="Dubuque" points="693.5,149.6 693.5,145.2 695.7,145.2 695.7,146.3 700.1,146.3 700.1,147.4 705.5,147.4 705.5,148.5 
	709.9,148.5 709.9,149.6 713.2,149.6 713.2,150.7 714.2,150.7 714.2,152.8 715.3,152.8 715.3,156.1 716.4,156.1 716.4,158.3 
	717.5,158.3 717.5,159.4 718.6,159.4 718.6,162.6 719.7,162.6 719.7,163.7 720.8,163.7 720.8,165.9 721.9,165.9 721.9,169.2 
	720.8,169.2 720.8,170.3 719.7,170.3 719.7,175.7 720.8,175.7 720.8,176.8 721.9,176.8 721.9,177.9 724,177.9 724,179 725.1,179 
	725.1,180.1 728.4,180.1 728.4,181.2 731.7,181.2 731.7,185.5 733.9,185.5 733.9,186.6 737.1,186.6 737.1,187.7 739.3,187.7 
	723,187.7 723,188.8 719.7,188.8 719.7,203 672.8,203 672.8,204 667.4,204 667.4,194.2 666.3,194.2 666.3,168.1 665.2,168.1 
	665.2,149.6 "/>
<polygon id="Monona" points="94.2,216 94.2,217.1 120.4,217.1 120.4,229.1 119.3,229.1 119.3,259.6 118.2,259.6 118.2,270.5 
	93.1,270.5 93.1,269.4 71.4,269.4 71.4,268.3 64.8,268.3 64.8,265.1 63.7,265.1 63.7,264 62.6,264 63.7,264 63.7,262.9 65.9,262.9 
	65.9,257.4 67,257.4 67,250.9 64.8,250.9 64.8,249.8 60.5,249.8 60.5,245.5 55,245.5 56.1,245.5 56.1,241.1 55,241.1 55,240 
	50.6,240 50.6,238.9 49.6,238.9 49.6,235.6 50.6,235.6 50.6,233.5 51.7,233.5 51.7,228 50.6,228 50.6,226.9 49.6,226.9 49.6,225.8 
	47.4,225.8 47.4,224.8 46.3,224.8 46.3,223.7 45.2,223.7 45.2,222.6 44.1,222.6 44.1,221.5 43,221.5 43,220.4 41.9,220.4 
	41.9,213.9 40.8,213.9 50.6,213.9 50.6,214.9 70.3,214.9 70.3,216 "/>
<polygon id="Crawford" points="161.8,218.2 161.8,219.3 190.1,219.3 190.1,231.3 189,231.3 189,268.3 187.9,268.3 187.9,272.7 
	167.2,272.7 167.2,271.6 124.7,271.6 124.7,270.5 121.5,270.5 121.5,246.5 122.6,246.5 122.6,217.1 126.9,217.1 126.9,218.2 "/>
<polygon id="Carroll" points="244.6,220.4 244.6,221.5 245.7,221.5 245.7,233.5 244.6,233.5 244.6,273.8 201,273.8 201,272.7 
	191.2,272.7 191.2,250.9 192.3,250.9 192.3,219.3 199.9,219.3 199.9,220.4 "/>
<polygon id="Greene" points="300.2,221.5 300.2,274.9 255.5,274.9 255.5,273.8 246.8,273.8 246.8,261.8 247.9,261.8 247.9,221.5 "/>
<polygon id="Boone" points="356.8,222.6 356.8,270.5 355.7,270.5 355.7,276 328.5,276 328.5,274.9 302.4,274.9 302.4,258.5 
	303.4,258.5 303.4,221.5 316.5,221.5 316.5,222.6 "/>
<polygon id="Story" points="412.4,222.6 412.4,276 359,276 359,222.6 "/>
<polygon id="Marshall" points="468,222.6 468,224.8 469.1,224.8 469.1,276 415.7,276 415.7,222.6 "/>
<polygon id="Tama" points="524.6,208.4 524.6,276 471.3,276 471.3,208.4 "/>
<polygon id="Benton" points="567.1,208.4 567.1,207.3 580.2,207.3 580.2,262.9 581.3,262.9 581.3,274.9 576.9,274.9 576.9,276 
	527.9,276 527.9,250.9 526.8,250.9 526.8,208.4 "/>
<polygon id="Linn" points="636.9,207.3 636.9,274.9 583.5,274.9 583.5,207.3 "/>
<polygon id="Jones" points="692.4,206.2 692.4,259.6 660.8,259.6 660.8,260.7 640.1,260.7 640.1,237.8 639.1,237.8 639.1,207.3 
	645.6,207.3 645.6,206.2 "/>
<polygon id="Jackson" points="742.6,191 742.6,192.1 743.7,192.1 743.7,193.2 744.8,193.2 744.8,194.2 745.8,194.2 745.8,195.3 
	746.9,195.3 746.9,197.5 748,197.5 748,198.6 749.1,198.6 749.1,201.9 748,201.9 748,208.4 749.1,208.4 749.1,210.6 750.2,210.6 
	750.2,211.7 751.3,211.7 751.3,213.9 752.4,213.9 752.4,214.9 753.5,214.9 753.5,216 754.6,216 754.6,217.1 755.6,217.1 
	755.6,218.2 758.9,218.2 758.9,219.3 761.1,219.3 761.1,220.4 763.3,220.4 763.3,221.5 765.5,221.5 765.5,222.6 767.6,222.6 
	767.6,223.7 772,223.7 772,224.8 773.1,224.8 773.1,225.8 775.3,225.8 775.3,229.1 776.4,229.1 776.4,230.2 777.4,230.2 
	777.4,231.3 780.7,231.3 780.7,243.3 751.3,243.3 751.3,244.4 716.4,244.4 716.4,245.5 695.7,245.5 695.7,213.9 694.6,213.9 
	694.6,206.2 703.3,206.2 703.3,205.1 721.9,205.1 721.9,191 "/>
<polygon id="Harrison" points="132.4,273.8 132.4,285.8 131.3,285.8 131.3,316.3 138.9,316.3 137.8,316.3 137.8,328.3 93.1,328.3 
	93.1,327.2 80.1,327.2 80.1,321.7 79,321.7 79,320.6 74.6,320.6 74.6,322.8 73.5,322.8 73.5,326.1 72.4,326.1 72.4,325 71.4,325 
	71.4,323.9 69.2,323.9 69.2,321.7 68.1,321.7 69.2,321.7 69.2,319.5 70.3,319.5 70.3,314.1 69.2,314.1 69.2,313 67,313 67,309.7 
	68.1,309.7 68.1,307.6 69.2,307.6 69.2,302.1 68.1,302.1 68.1,301 67,301 67,298.8 65.9,298.8 71.4,298.8 71.4,297.8 72.4,297.8 
	72.4,293.4 71.4,293.4 71.4,292.3 70.3,292.3 70.3,291.2 68.1,291.2 68.1,290.1 71.4,290.1 71.4,285.8 72.4,285.8 72.4,284.7 
	73.5,284.7 73.5,279.2 72.4,279.2 72.4,278.1 71.4,278.1 71.4,277.1 69.2,277.1 69.2,276 68.1,276 68.1,271.6 76.8,271.6 
	76.8,272.7 106.2,272.7 106.2,273.8 "/>
<polygon id="Shelby" points="181.4,274.9 181.4,276 187.9,276 187.9,311.9 186.9,311.9 186.9,317.4 193.4,317.4 193.4,330.4 
	176,330.4 176,329.4 141.1,329.4 141.1,314.1 135.6,314.1 135.6,313 133.5,313 133.5,304.3 134.6,304.3 134.6,273.8 141.1,273.8 
	141.1,274.9 "/>
<polygon id="Audubon" points="221.7,276 221.7,277.1 230.4,277.1 230.4,298.8 229.3,298.8 229.3,318.5 234.8,318.5 234.8,331.5 
	214.1,331.5 214.1,330.4 196.7,330.4 196.7,315.2 190.1,315.2 190.1,289 191.2,289 191.2,276 "/>
<polygon id="Guthrie" points="286,277.1 286,319.5 290.4,319.5 290.4,332.6 263.1,332.6 263.1,331.5 237,331.5 237,316.3 
	232.6,316.3 232.6,277.1 "/>
<polygon id="Dallas" points="323.1,277.1 323.1,278.1 341.6,278.1 341.6,320.6 344.9,320.6 344.9,331.5 343.8,331.5 343.8,332.6 
	332.9,332.6 332.9,333.7 331.8,333.7 331.8,332.6 292.5,332.6 292.5,316.3 288.2,316.3 288.2,309.7 289.3,309.7 289.3,277.1 "/>
<polygon id="Polk" points="398.2,278.1 398.2,320.6 400.4,320.6 400.4,337 400.4,334.8 397.2,334.8 397.2,335.9 397.2,334.8 
	395,334.8 395,333.7 392.8,333.7 392.8,332.6 389.5,332.6 389.5,333.7 389.5,332.6 371,332.6 371,331.5 347,331.5 347,317.4 
	344.9,317.4 344.9,278.1 "/>
<polygon id="Jasper" points="469.1,278.1 469.1,320.6 470.2,320.6 470.2,332.6 403.7,332.6 403.7,318.5 402.6,318.5 402.6,317.4 
	401.5,317.4 401.5,278.1 "/>
<polygon id="Poweshiek" points="524.6,278.1 524.6,320.6 525.7,320.6 525.7,332.6 473.4,332.6 473.4,328.3 472.3,328.3 472.3,317.4 
	471.3,317.4 471.3,278.1 "/>
<polygon id="Iowa" points="579.1,278.1 579.1,277.1 581.3,277.1 581.3,319.5 582.4,319.5 582.4,331.5 544.3,331.5 544.3,332.6 
	527.9,332.6 527.9,278.1 "/>
<polygon id="Johnson" points="636.9,277.1 636.9,278.1 638,278.1 638,344.6 627.1,344.6 627.1,343.5 626,343.5 626,342.4 
	624.9,342.4 624.9,339.2 623.8,339.2 624.9,339.2 624.9,333.7 623.8,333.7 623.8,332.6 622.7,332.6 622.7,330.4 615.1,330.4 
	615.1,331.5 584.6,331.5 584.6,304.3 583.5,304.3 583.5,298.8 584.6,298.8 584.6,279.2 583.5,279.2 583.5,277.1 "/>
<polygon id="Cedar" points="688.1,262.9 688.1,261.8 693.5,261.8 693.5,309.7 694.6,309.7 694.6,315.2 678.3,315.2 678.3,316.3 
	641.2,316.3 641.2,303.2 640.1,303.2 640.1,262.9 "/>
<polygon id="Clinton" points="738.2,247.6 738.2,246.5 769.8,246.5 769.8,245.5 782.9,245.5 782.9,247.6 784,247.6 784,250.9 
	782.9,250.9 782.9,253.1 781.8,253.1 781.8,260.7 782.9,260.7 782.9,266.2 781.8,266.2 781.8,269.4 780.7,269.4 780.7,273.8 
	779.6,273.8 779.6,279.2 780.7,279.2 779.6,279.2 779.6,280.3 777.4,280.3 777.4,281.4 775.3,281.4 775.3,282.5 773.1,282.5 
	773.1,283.6 772,283.6 772,284.7 770.9,284.7 770.9,285.8 768.7,285.8 768.7,286.9 767.6,286.9 767.6,287.9 766.5,287.9 766.5,289 
	765.5,289 765.5,290.1 764.4,290.1 764.4,291.2 764.4,290.1 761.1,290.1 761.1,292.3 760,292.3 760,291.2 755.6,291.2 755.6,292.3 
	755.6,291.2 753.5,291.2 753.5,289 752.4,289 752.4,287.9 751.3,287.9 751.3,286.9 748,286.9 748,287.9 748,285.8 744.8,285.8 
	744.8,286.9 741.5,286.9 741.5,285.8 737.1,285.8 737.1,286.9 736,286.9 736,287.9 733.9,287.9 733.9,286.9 730.6,286.9 
	730.6,287.9 726.2,287.9 726.2,289 726.2,287.9 720.8,287.9 720.8,289 719.7,289 719.7,290.1 718.6,290.1 718.6,292.3 717.5,292.3 
	717.5,291.2 714.2,291.2 714.2,289 713.2,289 713.2,287.9 696.8,287.9 696.8,280.3 695.7,280.3 695.7,247.6 "/>
<polygon id="Scott" points="714.2,294.5 714.2,295.6 720.8,295.6 720.8,294.5 721.9,294.5 721.9,292.3 723,292.3 723,291.2 
	724,291.2 724,292.3 727.3,292.3 727.3,291.2 731.7,291.2 731.7,290.1 732.8,290.1 732.8,291.2 734.9,291.2 734.9,290.1 
	739.3,290.1 739.3,289 740.4,289 740.4,290.1 743.7,290.1 743.7,289 745.8,289 745.8,291.2 749.1,291.2 749.1,290.1 750.2,290.1 
	750.2,291.2 751.3,291.2 751.3,294.5 753.5,294.5 753.5,295.6 763.3,295.6 763.3,294.5 764.4,294.5 764.4,298.8 763.3,298.8 
	763.3,299.9 762.2,299.9 762.2,305.4 761.1,305.4 761.1,311.9 762.2,311.9 762.2,315.2 761.1,315.2 761.1,316.3 758.9,316.3 
	758.9,317.4 755.6,317.4 755.6,318.5 753.5,318.5 753.5,320.6 752.4,320.6 752.4,321.7 751.3,321.7 751.3,322.8 750.2,322.8 
	750.2,323.9 749.1,323.9 749.1,326.1 746.9,326.1 746.9,327.2 743.7,327.2 743.7,326.1 736,326.1 736,327.2 734.9,327.2 
	734.9,328.3 731.7,328.3 731.7,329.4 730.6,329.4 730.6,331.5 729.5,331.5 729.5,332.6 728.4,332.6 728.4,333.7 727.3,333.7 
	727.3,334.8 726.2,334.8 726.2,335.9 725.1,335.9 725.1,337 720.8,337 720.8,338.1 716.4,338.1 716.4,339.2 711,339.2 711,315.2 
	696.8,315.2 696.8,290.1 709.9,290.1 709.9,291.2 711,291.2 711,293.4 712.1,293.4 712.1,294.5 "/>
<polygon id="Muscatine" points="707.7,318.5 707.7,317.4 708.8,317.4 708.8,338.1 701.2,338.1 701.2,339.2 699,339.2 699,340.3 
	697.9,340.3 697.9,341.3 695.7,341.3 695.7,342.4 693.5,342.4 693.5,343.5 690.3,343.5 690.3,342.4 683.7,342.4 683.7,343.5 
	679.4,343.5 679.4,344.6 678.3,344.6 678.3,345.7 677.2,345.7 677.2,351.1 676.1,351.1 676.1,352.2 675,352.2 675,358.8 
	641.2,358.8 641.2,319.5 650,319.5 650,318.5 "/>
<polygon id="Pottawattamie" points="156.3,331.5 156.3,332.6 179.2,332.6 179.2,364.2 178.1,364.2 178.1,386 165.1,386 165.1,384.9 
	129.1,384.9 129.1,383.8 126.9,383.8 126.9,384.9 126.9,383.8 97.5,383.8 97.5,380.6 96.4,380.6 96.4,379.5 87.7,379.5 87.7,377.3 
	86.6,377.3 87.7,377.3 87.7,376.2 88.8,376.2 88.8,374 89.9,374 89.9,370.8 88.8,370.8 88.8,368.6 87.7,368.6 88.8,368.6 
	88.8,367.5 92.1,367.5 92.1,366.4 93.1,366.4 93.1,365.3 94.2,365.3 94.2,358.8 93.1,358.8 93.1,357.7 91,357.7 91,356.6 
	87.7,356.6 87.7,357.7 87.7,356.6 86.6,356.6 86.6,355.5 85.5,355.5 85.5,354.4 84.4,354.4 86.6,354.4 86.6,353.3 87.7,353.3 
	87.7,347.9 86.6,347.9 86.6,346.8 87.7,346.8 87.7,341.3 88.8,341.3 88.8,340.3 89.9,340.3 89.9,335.9 88.8,335.9 88.8,334.8 
	87.7,334.8 87.7,333.7 82.2,333.7 82.2,332.6 77.9,332.6 77.9,331.5 79,331.5 79,330.4 80.1,330.4 80.1,329.4 91,329.4 91,330.4 
	121.5,330.4 121.5,331.5 "/>
<polygon id="Cass" points="233.7,333.7 233.7,334.8 234.8,334.8 234.8,357.7 233.7,357.7 233.7,387.1 199.9,387.1 199.9,386 
	180.3,386 181.4,386 181.4,349 182.5,349 182.5,332.6 190.1,332.6 190.1,333.7 "/>
<polygon id="Adair" points="290.4,334.8 290.4,340.3 289.3,340.3 289.3,388.2 246.8,388.2 246.8,387.1 235.9,387.1 235.9,386 
	237,386 237,334.8 "/>
<polygon id="Madison" points="339.4,335.9 339.4,334.8 344.9,334.8 344.9,386 343.8,386 343.8,388.2 339.4,388.2 339.4,389.3 
	302.4,389.3 302.4,388.2 291.5,388.2 291.5,379.5 292.5,379.5 292.5,334.8 292.5,335.9 "/>
<polygon id="Warren" points="381.9,334.8 381.9,335.9 387.3,335.9 387.3,337 389.5,337 389.5,338.1 391.7,338.1 391.7,339.2 
	395,339.2 395,338.1 395,339.2 398.2,339.2 398.2,340.3 400.4,340.3 400.4,389.3 373.2,389.3 373.2,388.2 347,388.2 347,334.8 "/>
<polygon id="Marion" points="456,335.9 456,389.3 403.7,389.3 403.7,335.9 "/>
<polygon id="Mahaska" points="499.6,335.9 499.6,334.8 511.6,334.8 511.6,388.2 502.9,388.2 502.9,389.3 459.3,389.3 459.3,335.9 
	"/>
<polygon id="Keokuk" points="568.2,334.8 568.2,376.2 569.3,376.2 569.3,388.2 514.8,388.2 514.8,341.3 513.7,341.3 513.7,334.8 "/>
<polygon id="Washington" points="618.4,333.7 618.4,334.8 619.4,334.8 619.4,335.9 620.5,335.9 620.5,337 621.6,337 620.5,337 
	620.5,341.3 621.6,341.3 621.6,343.5 622.7,343.5 622.7,344.6 623.8,344.6 623.8,346.8 624.9,346.8 624.9,387.1 593.3,387.1 
	593.3,388.2 571.5,388.2 571.5,347.9 570.4,347.9 570.4,334.8 579.1,334.8 579.1,333.7 "/>
<polygon id="Louisa" points="675,361 675,363.1 673.9,363.1 673.9,364.2 672.8,364.2 672.8,366.4 671.7,366.4 671.7,369.7 
	670.7,369.7 670.7,371.9 669.6,371.9 669.6,377.3 671.7,377.3 671.7,379.5 672.8,379.5 672.8,380.6 675,380.6 675,382.7 
	676.1,382.7 676.1,383.8 677.2,383.8 677.2,386 678.3,386 678.3,388.2 684.8,388.2 684.8,389.3 685.9,389.3 685.9,391.5 687,391.5 
	687,393.6 688.1,393.6 688.1,395.8 689.2,395.8 689.2,396.9 690.3,396.9 690.3,400.2 667.4,400.2 667.4,401.3 642.3,401.3 
	642.3,387.1 628.2,387.1 628.2,383.8 627.1,383.8 627.1,347.9 638,347.9 638,351.1 639.1,351.1 639.1,362 644.5,362 "/>
<polygon id="Mills" points="146.5,387.1 146.5,388.2 149.8,388.2 149.8,416.5 148.7,416.5 148.7,426.3 118.2,426.3 118.2,425.2 
	98.6,425.2 98.6,424.2 97.5,424.2 97.5,423.1 96.4,423.1 96.4,418.7 97.5,418.7 97.5,412.2 96.4,412.2 96.4,411.1 95.3,411.1 
	95.3,410 93.1,410 93.1,407.8 94.2,407.8 94.2,402.4 93.1,402.4 93.1,401.3 92.1,401.3 92.1,400.2 93.1,400.2 93.1,399.1 
	94.2,399.1 94.2,390.4 93.1,390.4 93.1,387.1 92.1,387.1 92.1,386 109.5,386 109.5,387.1 "/>
<polygon id="Montgomery" points="180.3,389.3 205.4,389.3 205.4,428.5 191.2,428.5 191.2,427.4 154.2,427.4 154.2,426.3 152,426.3 
	152,400.2 153.1,400.2 153.1,388.2 "/>
<polygon id="Adams" points="262,390.4 262,399.1 260.9,399.1 260.9,429.6 233.7,429.6 233.7,428.5 207.6,428.5 207.6,411.1 
	208.6,411.1 208.6,389.3 220.6,389.3 220.6,390.4 "/>
<polygon id="Union" points="316.5,391.5 316.5,430.7 282.7,430.7 282.7,429.6 263.1,429.6 263.1,402.4 264.2,402.4 264.2,390.4 
	270.8,390.4 270.8,391.5 "/>
<polygon id="Clarke" points="372.1,391.5 372.1,430.7 318.7,430.7 318.7,413.3 319.8,413.3 319.8,391.5 "/>
<polygon id="Lucas" points="428.8,391.5 428.8,431.8 375.4,431.8 375.4,391.5 "/>
<polygon id="Monroe" points="484.3,391.5 484.3,431.8 430.9,431.8 430.9,391.5 "/>
<polygon id="Wapello" points="539.9,391.5 539.9,407.8 541,407.8 541,430.7 492,430.7 492,431.8 487.6,431.8 487.6,429.6 
	486.5,429.6 486.5,391.5 "/>
<polygon id="Jefferson" points="596.6,390.4 596.6,422 597.7,422 597.7,429.6 573.7,429.6 573.7,430.7 543.2,430.7 543.2,391.5 
	547.5,391.5 547.5,390.4 "/>
<polygon id="Henry" points="634.7,390.4 634.7,389.3 639.1,389.3 639.1,425.2 640.1,425.2 640.1,443.8 599.8,443.8 599.8,390.4 "/>
<polygon id="Fremont" points="148.7,429.6 148.7,451.4 147.6,451.4 147.6,457.9 149.8,457.9 149.8,465.6 148.7,465.6 148.7,478.6 
	141.1,478.6 141.1,477.5 120.4,477.5 120.4,476.5 106.2,476.5 106.2,473.2 105.1,473.2 105.1,472.1 104,472.1 104,471 103,471 
	103,465.6 101.9,465.6 101.9,464.5 100.8,464.5 100.8,463.4 96.4,463.4 96.4,462.3 95.3,462.3 95.3,461.2 94.2,461.2 94.2,457.9 
	93.1,457.9 93.1,455.8 89.9,455.8 89.9,451.4 91,451.4 91,450.3 93.1,450.3 93.1,449.2 94.2,449.2 94.2,448.1 95.3,448.1 95.3,447 
	96.4,447 96.4,442.7 95.3,442.7 95.3,439.4 96.4,439.4 96.4,436.1 95.3,436.1 95.3,432.9 97.5,432.9 97.5,431.8 98.6,431.8 
	98.6,430.7 99.7,430.7 99.7,427.4 99.7,428.5 133.5,428.5 133.5,429.6 "/>
<polygon id="Page" points="204.3,430.7 204.3,459 206.5,459 206.5,462.3 205.4,462.3 205.4,480.8 192.3,480.8 192.3,479.7 
	167.2,479.7 167.2,478.6 152,478.6 152,460.1 153.1,460.1 153.1,454.7 150.9,454.7 150.9,437.2 152,437.2 152,429.6 169.4,429.6 
	169.4,430.7 "/>
<polygon id="Taylor" points="253.3,431.8 253.3,432.9 260.9,432.9 260.9,454.7 259.9,454.7 259.9,483 250.1,483 250.1,481.9 
	219.5,481.9 219.5,480.8 208.6,480.8 208.6,456.8 206.5,456.8 206.5,455.8 207.6,455.8 207.6,452.5 206.5,452.5 207.6,452.5 
	207.6,430.7 210.8,430.7 210.8,431.8 "/>
<polygon id="Ringgold" points="303.4,432.9 303.4,434 316.5,434 316.5,449.2 315.4,449.2 315.4,483 263.1,483 263.1,432.9 "/>
<polygon id="Decatur" points="372.1,434 372.1,483 318.7,483 318.7,434 "/>
<polygon id="Wayne" points="428.8,434 428.8,481.9 412.4,481.9 412.4,483 379.7,483 379.7,481.9 374.3,481.9 374.3,478.6 
	375.4,478.6 375.4,434 "/>
<polygon id="Appanoose" points="484.3,434 484.3,480.8 453.8,480.8 453.8,481.9 430.9,481.9 430.9,434 "/>
<polygon id="Davis" points="541,434 541,478.6 529,478.6 529,479.7 498.5,479.7 498.5,480.8 487.6,480.8 487.6,434 "/>
<polygon id="Van_Buren" points="597.7,432.9 597.7,475.4 596.6,475.4 596.6,476.5 581.3,476.5 581.3,477.5 558.4,477.5 558.4,478.6 
	544.3,478.6 544.3,445.9 543.2,445.9 543.2,434 548.6,434 548.6,432.9 "/>
<polygon id="Des_Moines" points="691.4,403.5 691.4,413.3 690.3,413.3 690.3,423.1 689.2,423.1 689.2,425.2 687,425.2 687,426.3 
	685.9,426.3 685.9,427.4 683.7,427.4 683.7,428.5 682.6,428.5 682.6,430.7 681.6,430.7 681.6,431.8 680.5,431.8 680.5,432.9 
	679.4,432.9 679.4,436.1 678.3,436.1 678.3,437.2 677.2,437.2 677.2,438.3 676.1,438.3 676.1,439.4 675,439.4 675,440.5 
	673.9,440.5 673.9,443.8 672.8,443.8 672.8,447 673.9,447 673.9,451.4 672.8,451.4 672.8,452.5 671.7,452.5 671.7,460.1 
	670.7,460.1 670.7,459 668.5,459 668.5,457.9 664.1,457.9 664.1,459 664.1,457.9 663,457.9 663,456.8 661.9,456.8 661.9,455.8 
	659.8,455.8 659.8,454.7 658.7,454.7 658.7,453.6 657.6,453.6 657.6,452.5 653.2,452.5 653.2,450.3 652.1,450.3 652.1,449.2 
	648.9,449.2 648.9,448.1 647.8,448.1 647.8,447 643.4,447 643.4,445.9 641.2,445.9 642.3,445.9 642.3,403.5 "/>
<polygon id="Lee" points="609.6,447 609.6,445.9 635.8,445.9 635.8,447 638,447 638,448.1 640.1,448.1 640.1,449.2 642.3,449.2 
	642.3,450.3 645.6,450.3 645.6,451.4 646.7,451.4 646.7,452.5 650,452.5 650,453.6 651,453.6 651,455.8 655.4,455.8 655.4,456.8 
	656.5,456.8 656.5,457.9 658.7,457.9 658.7,459 659.8,459 659.8,461.2 663,461.2 663,462.3 666.3,462.3 666.3,460.1 666.3,462.3 
	668.5,462.3 668.5,463.4 671.7,463.4 670.7,463.4 670.7,466.7 668.5,466.7 668.5,467.7 667.4,467.7 667.4,468.8 665.2,468.8 
	665.2,469.9 664.1,469.9 664.1,471 654.3,471 654.3,472.1 651,472.1 651,473.2 647.8,473.2 647.8,474.3 645.6,474.3 645.6,475.4 
	643.4,475.4 643.4,476.5 642.3,476.5 642.3,477.5 641.2,477.5 641.2,479.7 640.1,479.7 640.1,481.9 639.1,481.9 639.1,483 638,483 
	638,484.1 636.9,484.1 636.9,486.3 635.8,486.3 635.8,489.5 636.9,489.5 636.9,490.6 639.1,490.6 639.1,492.8 640.1,492.8 
	640.1,493.9 641.2,493.9 641.2,499.3 640.1,499.3 640.1,502.6 639.1,502.6 639.1,507 640.1,507 640.1,512.4 629.3,512.4 
	629.3,509.1 624.9,509.1 624.9,508.1 626,508.1 626,504.8 623.8,504.8 624.9,504.8 624.9,500.4 619.4,500.4 619.4,499.3 
	617.3,499.3 617.3,496.1 616.2,496.1 616.2,495 615.1,495 615.1,493.9 612.9,493.9 612.9,487.4 610.7,487.4 610.7,486.3 
	604.2,486.3 604.2,480.8 603.1,480.8 603.1,479.7 600.9,479.7 600.9,460.1 599.8,460.1 599.8,447 "/>
</svg>
